<svg width="48" height="48" viewBox="0 0 48 48" fill="none" xmlns="http://www.w3.org/2000/svg">
<g clip-path="url(#clip0_143_1956)">
<rect width="48" height="48" rx="24" fill="#D2D2D2"/>
<path d="M24.0001 13.6665C26.2986 13.6665 28.503 14.5796 30.1283 16.2049C31.7537 17.8302 32.6667 20.0346 32.6667 22.3332C32.6667 24.6317 31.7537 26.8361 30.1283 28.4614C28.503 30.0867 26.2986 30.9998 24.0001 30.9998C21.7015 30.9998 19.4971 30.0867 17.8718 28.4614C16.2465 26.8361 15.3334 24.6317 15.3334 22.3332C15.3334 20.0346 16.2465 17.8302 17.8718 16.2049C19.4971 14.5796 21.7015 13.6665 24.0001 13.6665ZM24.0001 35.3332C33.5767 35.3332 41.3334 39.2115 41.3334 43.9998V48.3332H6.66675V43.9998C6.66675 39.2115 14.4234 35.3332 24.0001 35.3332Z" fill="black" fill-opacity="0.5"/>
</g>
<defs>
<clipPath id="clip0_143_1956">
<rect width="48" height="48" rx="24" fill="white"/>
</clipPath>
</defs>
</svg>
