<svg width="28" height="28" viewBox="0 0 28 28" fill="none" xmlns="http://www.w3.org/2000/svg">
<g clip-path="url(#clip0_1626_3608)">
<path d="M14 2.33398C20.4435 2.33398 25.6667 7.55715 25.6667 14.0007C25.6667 20.4442 20.4435 25.6673 14 25.6673C7.55654 25.6673 2.33337 20.4442 2.33337 14.0007C2.33337 7.55715 7.55654 2.33398 14 2.33398ZM14 4.66732C11.5247 4.66732 9.15072 5.65065 7.40038 7.40099C5.65004 9.15133 4.66671 11.5253 4.66671 14.0007C4.66671 16.476 5.65004 18.85 7.40038 20.6003C9.15072 22.3507 11.5247 23.334 14 23.334C16.4754 23.334 18.8494 22.3507 20.5997 20.6003C22.35 18.85 23.3334 16.476 23.3334 14.0007C23.3334 11.5253 22.35 9.15133 20.5997 7.40099C18.8494 5.65065 16.4754 4.66732 14 4.66732ZM14 7.00065C14.2858 7.00069 14.5616 7.1056 14.7751 7.29549C14.9887 7.48537 15.1251 7.74703 15.1585 8.03082L15.1667 8.16732V13.5177L18.3249 16.6758C18.5341 16.8858 18.6556 17.1675 18.6646 17.4638C18.6737 17.76 18.5696 18.0487 18.3736 18.271C18.1775 18.4933 17.9042 18.6327 17.6092 18.6608C17.3141 18.6889 17.0194 18.6036 16.7849 18.4223L16.6752 18.3255L13.1752 14.8255C12.9939 14.644 12.8774 14.4078 12.8439 14.1535L12.8334 14.0007V8.16732C12.8334 7.8579 12.9563 7.56115 13.1751 7.34236C13.3939 7.12357 13.6906 7.00065 14 7.00065Z" fill="black"/>
</g>
<defs>
<clipPath id="clip0_1626_3608">
<rect width="28" height="28" fill="white"/>
</clipPath>
</defs>
</svg>
