<svg width="28" height="28" viewBox="0 0 28 28" fill="none" xmlns="http://www.w3.org/2000/svg">
<path d="M8.8076 2C9.03038 2 9.24404 2.09219 9.40157 2.25628C9.5591 2.42038 9.6476 2.64294 9.6476 2.875V4.51125H18.668V2.88625C18.668 2.65419 18.7565 2.43163 18.914 2.26753C19.0716 2.10344 19.2852 2.01125 19.508 2.01125C19.7308 2.01125 19.9444 2.10344 20.102 2.26753C20.2595 2.43163 20.348 2.65419 20.348 2.88625V4.51125H23.6C24.2363 4.51125 24.8466 4.77447 25.2966 5.24304C25.7467 5.71161 25.9997 6.34718 26 7.01V24.5012C25.9997 25.1641 25.7467 25.7996 25.2966 26.2682C24.8466 26.7368 24.2363 27 23.6 27H4.4C3.76369 27 3.15342 26.7368 2.70337 26.2682C2.25332 25.7996 2.00032 25.1641 2 24.5012V7.01C2.00032 6.34718 2.25332 5.71161 2.70337 5.24304C3.15342 4.77447 3.76369 4.51125 4.4 4.51125H7.9676V2.87375C7.96792 2.6419 8.05656 2.41966 8.21405 2.25584C8.37155 2.09202 8.58503 2 8.8076 2ZM3.68 11.6775V24.5012C3.68 24.5997 3.69862 24.6973 3.73481 24.7883C3.77099 24.8793 3.82403 24.9619 3.89088 25.0316C3.95774 25.1012 4.03711 25.1565 4.12447 25.1942C4.21182 25.2319 4.30545 25.2512 4.4 25.2512H23.6C23.6946 25.2512 23.7882 25.2319 23.8755 25.1942C23.9629 25.1565 24.0423 25.1012 24.1091 25.0316C24.176 24.9619 24.229 24.8793 24.2652 24.7883C24.3014 24.6973 24.32 24.5997 24.32 24.5012V11.695L3.68 11.6775ZM10.0004 20.2738V22.3563H8V20.2738H10.0004ZM14.9996 20.2738V22.3563H13.0004V20.2738H14.9996ZM20 20.2738V22.3563H17.9996V20.2738H20ZM10.0004 15.3025V17.385H8V15.3025H10.0004ZM14.9996 15.3025V17.385H13.0004V15.3025H14.9996ZM20 15.3025V17.385H17.9996V15.3025H20ZM7.9676 6.26H4.4C4.30545 6.26 4.21182 6.2794 4.12447 6.31709C4.03711 6.35478 3.95774 6.41003 3.89088 6.47967C3.82403 6.54931 3.77099 6.63199 3.73481 6.72299C3.69862 6.81398 3.68 6.91151 3.68 7.01V9.92875L24.32 9.94625V7.01C24.32 6.91151 24.3014 6.81398 24.2652 6.72299C24.229 6.63199 24.176 6.54931 24.1091 6.47967C24.0423 6.41003 23.9629 6.35478 23.8755 6.31709C23.7882 6.2794 23.6946 6.26 23.6 6.26H20.348V7.42125C20.348 7.65331 20.2595 7.87587 20.102 8.03997C19.9444 8.20406 19.7308 8.29625 19.508 8.29625C19.2852 8.29625 19.0716 8.20406 18.914 8.03997C18.7565 7.87587 18.668 7.65331 18.668 7.42125V6.26H9.6476V7.41C9.6476 7.64206 9.5591 7.86462 9.40157 8.02872C9.24404 8.19281 9.03038 8.285 8.8076 8.285C8.58482 8.285 8.37116 8.19281 8.21363 8.02872C8.0561 7.86462 7.9676 7.64206 7.9676 7.41V6.26Z" fill="black"/>
</svg>
