<svg width="28" height="28" viewBox="0 0 28 28" fill="none" xmlns="http://www.w3.org/2000/svg">
<path d="M14 25.6673C13.7278 25.6673 13.4945 25.5895 13.3 25.434C13.1056 25.2784 12.9598 25.0743 12.8625 24.8215C12.4931 23.7326 12.0264 22.7118 11.4625 21.759C10.9181 20.8062 10.15 19.6882 9.15837 18.4048C8.16671 17.1215 7.35976 15.8965 6.73754 14.7298C6.13476 13.5632 5.83337 12.1534 5.83337 10.5007C5.83337 8.22565 6.62087 6.30065 8.19587 4.72565C9.79032 3.13121 11.725 2.33398 14 2.33398C16.275 2.33398 18.2 3.13121 19.775 4.72565C21.3695 6.30065 22.1667 8.22565 22.1667 10.5007C22.1667 12.2701 21.8264 13.7479 21.1459 14.934C20.4848 16.1007 19.7167 17.2576 18.8417 18.4048C17.7917 19.8048 16.9945 20.9715 16.45 21.9048C15.925 22.8187 15.4875 23.7909 15.1375 24.8215C15.0403 25.0937 14.8848 25.3076 14.6709 25.4632C14.4764 25.5993 14.2528 25.6673 14 25.6673ZM14 13.4173C14.8167 13.4173 15.507 13.1354 16.0709 12.5715C16.6348 12.0076 16.9167 11.3173 16.9167 10.5007C16.9167 9.68398 16.6348 8.99371 16.0709 8.42982C15.507 7.86593 14.8167 7.58398 14 7.58398C13.1834 7.58398 12.4931 7.86593 11.9292 8.42982C11.3653 8.99371 11.0834 9.68398 11.0834 10.5007C11.0834 11.3173 11.3653 12.0076 11.9292 12.5715C12.4931 13.1354 13.1834 13.4173 14 13.4173Z" fill="black"/>
</svg>
