<svg width="20" height="21" viewBox="0 0 20 21" fill="none" xmlns="http://www.w3.org/2000/svg">
<path fill-rule="evenodd" clip-rule="evenodd" d="M5.83329 6.33317C5.83329 4.0315 7.69829 2.1665 9.99996 2.1665C12.3016 2.1665 14.1666 4.0315 14.1666 6.33317V8.83317H14.5C15.2333 8.83317 15.8333 9.43317 15.8333 10.1665V15.9998C15.8333 17.0998 14.9333 17.9998 13.8333 17.9998H6.16663C5.06663 17.9998 4.16663 17.0998 4.16663 15.9998V10.1665C4.16663 9.43317 4.76663 8.83317 5.49996 8.83317H5.83329V6.33317ZM12.5 6.33317V8.83317H7.49996V6.33317C7.49996 4.9515 8.61829 3.83317 9.99996 3.83317C11.3816 3.83317 12.5 4.9515 12.5 6.33317ZM9.99996 10.7082C9.66858 10.7078 9.34695 10.8204 9.08807 11.0272C8.82919 11.2341 8.64848 11.523 8.57571 11.8463C8.50294 12.1696 8.54244 12.508 8.68772 12.8058C8.833 13.1037 9.07539 13.3432 9.37496 13.4848V15.4998C9.37496 15.6656 9.44081 15.8246 9.55802 15.9418C9.67523 16.059 9.8342 16.1248 9.99996 16.1248C10.1657 16.1248 10.3247 16.059 10.4419 15.9418C10.5591 15.8246 10.625 15.6656 10.625 15.4998V13.4848C10.9245 13.3432 11.1669 13.1037 11.3122 12.8058C11.4575 12.508 11.497 12.1696 11.4242 11.8463C11.3514 11.523 11.1707 11.2341 10.9118 11.0272C10.653 10.8204 10.3313 10.7078 9.99996 10.7082Z" fill="white"/>
</svg>
