<svg width="48" height="48" viewBox="0 0 48 48" fill="none" xmlns="http://www.w3.org/2000/svg">
<path d="M8.5 12C8.5 10.0109 9.29018 8.10322 10.6967 6.6967C12.1032 5.29018 14.0109 4.5 16 4.5H32C33.9891 4.5 35.8968 5.29018 37.3033 6.6967C38.7098 8.10322 39.5 10.0109 39.5 12V30C39.5 33.26 37.42 36.034 34.514 37.068L37.248 41.168C37.3598 41.3318 37.4381 41.5162 37.4782 41.7105C37.5183 41.9048 37.5194 42.1051 37.4816 42.2998C37.4438 42.4945 37.3677 42.6798 37.2578 42.845C37.1478 43.0101 37.0063 43.1518 36.8412 43.2618C36.6761 43.3718 36.4909 43.448 36.2962 43.486C36.1015 43.524 35.9012 43.5229 35.7069 43.483C35.5126 43.443 35.3281 43.3649 35.1642 43.2531C35.0003 43.1414 34.8602 42.9983 34.752 42.832L31.198 37.5H16.8L13.246 42.832C13.1378 42.9983 12.9977 43.1414 12.8338 43.2531C12.6699 43.3649 12.4854 43.443 12.2911 43.483C12.0968 43.5229 11.8965 43.524 11.7018 43.486C11.5071 43.448 11.3219 43.3718 11.1568 43.2618C10.9917 43.1518 10.8502 43.0101 10.7402 42.845C10.6303 42.6798 10.5542 42.4945 10.5164 42.2998C10.4786 42.1051 10.4797 41.9048 10.5198 41.7105C10.5599 41.5162 10.6382 41.3318 10.75 41.168L13.484 37.068C12.0252 36.5485 10.763 35.5903 9.87063 34.3247C8.97825 33.0592 8.49946 31.5485 8.5 30V12ZM36.5 13.5H25.5V20.5H36.5V13.5ZM11.5 20.5H22.5V13.5H11.5V20.5ZM17.5 28C17.5 27.6022 17.342 27.2206 17.0607 26.9393C16.7794 26.658 16.3978 26.5 16 26.5C15.6022 26.5 15.2206 26.658 14.9393 26.9393C14.658 27.2206 14.5 27.6022 14.5 28V30C14.5 30.3978 14.658 30.7794 14.9393 31.0607C15.2206 31.342 15.6022 31.5 16 31.5C16.3978 31.5 16.7794 31.342 17.0607 31.0607C17.342 30.7794 17.5 30.3978 17.5 30V28ZM32 26.5C31.6022 26.5 31.2206 26.658 30.9393 26.9393C30.658 27.2206 30.5 27.6022 30.5 28V30C30.5 30.3978 30.658 30.7794 30.9393 31.0607C31.2206 31.342 31.6022 31.5 32 31.5C32.3978 31.5 32.7794 31.342 33.0607 31.0607C33.342 30.7794 33.5 30.3978 33.5 30V28C33.5 27.6022 33.342 27.2206 33.0607 26.9393C32.7794 26.658 32.3978 26.5 32 26.5Z" fill="white"/>
</svg>
