<svg width="28" height="28" viewBox="0 0 28 28" fill="none" xmlns="http://www.w3.org/2000/svg">
<g clip-path="url(#clip0_1626_3618)">
<path fill-rule="evenodd" clip-rule="evenodd" d="M19.3106 25.8227C17.6306 25.7609 12.8695 25.1029 7.88313 20.1177C2.89796 15.1314 2.24113 10.3714 2.17813 8.6902C2.08479 6.12819 4.04713 3.6397 6.31396 2.66786C6.58693 2.54999 6.88586 2.50511 7.18141 2.53763C7.47696 2.57015 7.75898 2.67896 7.99979 2.85336C9.86646 4.2137 11.1545 6.2717 12.2605 7.88986C12.5038 8.24538 12.6079 8.678 12.5528 9.10529C12.4977 9.53258 12.2873 9.92468 11.9618 10.2069L9.68563 11.8974C9.57566 11.9768 9.49825 12.0934 9.46778 12.2256C9.43731 12.3577 9.45585 12.4965 9.51996 12.616C10.0356 13.5529 10.9526 14.9482 12.0026 15.9982C13.0538 17.0482 14.5145 18.0259 15.5166 18.5999C15.6423 18.6704 15.7902 18.6901 15.9299 18.655C16.0697 18.6198 16.1906 18.5325 16.268 18.4109L17.7496 16.1557C18.022 15.7938 18.4239 15.5514 18.871 15.4792C19.3181 15.407 19.7758 15.5106 20.1483 15.7684C21.7898 16.9047 23.7055 18.1705 25.1078 19.966C25.2964 20.2086 25.4163 20.4973 25.4551 20.8021C25.4939 21.1069 25.4501 21.4165 25.3283 21.6985C24.3518 23.977 21.8808 25.9172 19.3106 25.8227Z" fill="black"/>
</g>
<defs>
<clipPath id="clip0_1626_3618">
<rect width="28" height="28" fill="white"/>
</clipPath>
</defs>
</svg>
