<svg width="28" height="28" viewBox="0 0 28 28" fill="none" xmlns="http://www.w3.org/2000/svg">
<path d="M4.66659 22.1667H23.3333V19.8333H4.66659V22.1667ZM9.33325 15.1667H11.6666V11.6667C11.6666 11.025 11.8953 10.4759 12.3526 10.0193C12.8099 9.56278 13.359 9.33411 13.9999 9.33333V7C12.7166 7 11.618 7.45694 10.7041 8.37083C9.7902 9.28472 9.33325 10.3833 9.33325 11.6667V15.1667ZM8.16658 17.5H19.8333V11.6667C19.8333 10.0528 19.2643 8.67728 18.1264 7.54017C16.9885 6.40306 15.613 5.83411 13.9999 5.83333C12.3868 5.83256 11.0113 6.4015 9.87342 7.54017C8.73553 8.67883 8.16658 10.0543 8.16658 11.6667V17.5ZM4.66659 24.5C4.02492 24.5 3.47581 24.2717 3.01925 23.8152C2.5627 23.3586 2.33403 22.8091 2.33325 22.1667V19.8333C2.33325 19.1917 2.56192 18.6426 3.01925 18.186C3.47659 17.7294 4.0257 17.5008 4.66659 17.5H5.83325V11.6667C5.83325 9.39167 6.62581 7.462 8.21092 5.87767C9.79603 4.29333 11.7257 3.50078 13.9999 3.5C16.2741 3.49922 18.2042 4.29178 19.7901 5.87767C21.376 7.46356 22.1681 9.39322 22.1666 11.6667V17.5H23.3333C23.9749 17.5 24.5244 17.7287 24.9818 18.186C25.4391 18.6433 25.6674 19.1924 25.6666 19.8333V22.1667C25.6666 22.8083 25.4383 23.3578 24.9818 23.8152C24.5252 24.2725 23.9757 24.5008 23.3333 24.5H4.66659Z" fill="black"/>
</svg>
