<svg width="48" height="48" viewBox="0 0 48 48" fill="none" xmlns="http://www.w3.org/2000/svg">
<g filter="url(#filter0_i_1687_8207)">
<path fill-rule="evenodd" clip-rule="evenodd" d="M18 4C9.16344 4 2 11.1634 2 20L2.00337 20.3313C2.16721 28.3732 8.28258 35.0157 16.2043 35.9002L16.468 35.927L16.5604 35.9515C16.7019 35.9833 16.849 36 17 36H35L35.2943 35.996C41.262 35.8234 46 30.9545 46 25C46 18.9249 41.0751 14 35 14L34.5683 14.0083C34.1378 14.025 33.7111 14.0666 33.2899 14.1325L32.915 14.198L32.8113 13.9358C30.3965 8.033 24.6037 4 18 4Z" fill="url(#paint0_linear_1687_8207)"/>
</g>
<g filter="url(#filter1_i_1687_8207)">
<path fill-rule="evenodd" clip-rule="evenodd" d="M32.2 24.4L28 30L31.2439 30.2949C32.0689 30.3699 32.6769 31.0995 32.6019 31.9245C32.5837 32.1249 32.5253 32.3196 32.4303 32.497L25.7586 44.9526C24.6893 46.9267 21.7216 45.9051 22.0144 43.7529L22.0389 43.6078L23.623 35.68L17.8636 34.7885C17.045 34.6618 16.484 33.8954 16.6108 33.0767C16.6281 32.9644 16.6582 32.8545 16.7004 32.7491L20.4971 23.2572C20.8009 22.4979 21.5363 22 22.3541 22H31C31.8284 22 32.5 22.6716 32.5 23.5C32.5 23.8246 32.3947 24.1404 32.2 24.4Z" fill="url(#paint1_linear_1687_8207)"/>
</g>
<path fill-rule="evenodd" clip-rule="evenodd" d="M14.143 36.2577C14.5533 35.2322 15.7172 34.7334 16.7428 35.1436C17.7195 35.5343 18.2185 36.6086 17.9094 37.596L17.8569 37.7433L15.8569 42.7433C15.4467 43.7689 14.2828 44.2677 13.2572 43.8575C12.2805 43.4668 11.7815 42.3925 12.0906 41.4051L12.143 41.2577L14.143 36.2577ZM34.143 36.2577C34.5533 35.2322 35.7172 34.7334 36.7428 35.1436C37.7195 35.5343 38.2185 36.6086 37.9094 37.596L37.8569 37.7433L35.8569 42.7433C35.4467 43.7689 34.2828 44.2677 33.2572 43.8575C32.2805 43.4668 31.7815 42.3925 32.0906 41.4051L32.143 41.2577L34.143 36.2577Z" fill="url(#paint2_linear_1687_8207)"/>
<defs>
<filter id="filter0_i_1687_8207" x="2" y="4" width="44" height="34" filterUnits="userSpaceOnUse" color-interpolation-filters="sRGB">
<feFlood flood-opacity="0" result="BackgroundImageFix"/>
<feBlend mode="normal" in="SourceGraphic" in2="BackgroundImageFix" result="shape"/>
<feColorMatrix in="SourceAlpha" type="matrix" values="0 0 0 0 0 0 0 0 0 0 0 0 0 0 0 0 0 0 127 0" result="hardAlpha"/>
<feOffset dy="2"/>
<feGaussianBlur stdDeviation="4"/>
<feComposite in2="hardAlpha" operator="arithmetic" k2="-1" k3="1"/>
<feColorMatrix type="matrix" values="0 0 0 0 0.831313 0 0 0 0 0.98288 0 0 0 0 0.98288 0 0 0 1 0"/>
<feBlend mode="normal" in2="shape" result="effect1_innerShadow_1687_8207"/>
</filter>
<filter id="filter1_i_1687_8207" x="16.5929" y="22" width="16.0153" height="26.0078" filterUnits="userSpaceOnUse" color-interpolation-filters="sRGB">
<feFlood flood-opacity="0" result="BackgroundImageFix"/>
<feBlend mode="normal" in="SourceGraphic" in2="BackgroundImageFix" result="shape"/>
<feColorMatrix in="SourceAlpha" type="matrix" values="0 0 0 0 0 0 0 0 0 0 0 0 0 0 0 0 0 0 127 0" result="hardAlpha"/>
<feOffset dy="2"/>
<feGaussianBlur stdDeviation="4"/>
<feComposite in2="hardAlpha" operator="arithmetic" k2="-1" k3="1"/>
<feColorMatrix type="matrix" values="0 0 0 0 1 0 0 0 0 1 0 0 0 0 1 0 0 0 1 0"/>
<feBlend mode="overlay" in2="shape" result="effect1_innerShadow_1687_8207"/>
</filter>
<linearGradient id="paint0_linear_1687_8207" x1="2" y1="4" x2="2" y2="36" gradientUnits="userSpaceOnUse">
<stop stop-color="#8FD5FF"/>
<stop offset="1" stop-color="#4CAFFF"/>
</linearGradient>
<linearGradient id="paint1_linear_1687_8207" x1="24.6005" y1="22" x2="24.6005" y2="46.0081" gradientUnits="userSpaceOnUse">
<stop stop-color="#FA6C21"/>
<stop offset="1" stop-color="#FFD358"/>
</linearGradient>
<linearGradient id="paint2_linear_1687_8207" x1="11.9995" y1="35" x2="11.9995" y2="44.0011" gradientUnits="userSpaceOnUse">
<stop stop-color="#D6F0FF"/>
<stop offset="1" stop-color="#A2D5FF"/>
</linearGradient>
</defs>
</svg>
