<svg width="48" height="48" viewBox="0 0 48 48" fill="none" xmlns="http://www.w3.org/2000/svg">
<path fill-rule="evenodd" clip-rule="evenodd" d="M31.7428 35.1436C32.7196 35.5343 33.2185 36.6086 32.9095 37.596L32.857 37.7433L30.857 42.7433C30.4468 43.7689 29.2828 44.2677 28.2573 43.8575C27.2805 43.4668 26.7816 42.3925 27.0906 41.4051L27.1431 41.2577L29.1431 36.2577C29.5533 35.2322 30.7173 34.7334 31.7428 35.1436ZM37.7428 35.1436C38.7196 35.5343 39.2185 36.6086 38.9095 37.596L38.857 37.7433L36.857 42.7433C36.4468 43.7689 35.2828 44.2677 34.2573 43.8575C33.2805 43.4668 32.7816 42.3925 33.0906 41.4051L33.1431 41.2577L35.1431 36.2577C35.5533 35.2322 36.7173 34.7334 37.7428 35.1436ZM43.7428 35.1436C44.7196 35.5343 45.2185 36.6086 44.9095 37.596L44.857 37.7433L42.857 42.7433C42.4468 43.7689 41.2828 44.2677 40.2573 43.8575C39.2805 43.4668 38.7816 42.3925 39.0906 41.4051L39.1431 41.2577L41.1431 36.2577C41.5533 35.2322 42.7173 34.7334 43.7428 35.1436ZM36.2428 26.1436C37.2196 26.5343 37.7185 27.6086 37.4095 28.596L37.357 28.7433L35.357 33.7433C34.9468 34.7689 33.7828 35.2677 32.7573 34.8575C31.7805 34.4668 31.2816 33.3925 31.5906 32.4051L31.6431 32.2577L33.6431 27.2578C34.0533 26.2322 35.2173 25.7334 36.2428 26.1436ZM43.2428 26.1436C44.2196 26.5343 44.7185 27.6086 44.4095 28.596L44.357 28.7433L42.357 33.7433C41.9468 34.7689 40.7828 35.2677 39.7573 34.8575C38.7805 34.4668 38.2816 33.3925 38.5906 32.4051L38.6431 32.2577L40.6431 27.2578C41.0533 26.2322 42.2173 25.7334 43.2428 26.1436ZM6.14309 36.2577C6.55332 35.2322 7.71726 34.7334 8.74283 35.1436C9.71956 35.5343 10.2185 36.6086 9.90946 37.596L9.857 37.7433L7.857 42.7433C7.44677 43.7689 6.28283 44.2677 5.25726 43.8575C4.28053 43.4668 3.78157 42.3925 4.09063 41.4051L4.14309 41.2577L6.14309 36.2577ZM17.7428 35.1436C18.7196 35.5343 19.2185 36.6086 18.9095 37.596L18.857 37.7433L16.857 42.7433C16.4468 43.7689 15.2828 44.2677 14.2573 43.8575C13.2805 43.4668 12.7816 42.3925 13.0906 41.4051L13.1431 41.2577L15.1431 36.2577C15.5533 35.2322 16.7173 34.7334 17.7428 35.1436ZM15.2428 26.1436C16.2196 26.5343 16.7185 27.6086 16.4095 28.596L16.357 28.7433L14.357 33.7433C13.9468 34.7689 12.7828 35.2677 11.7573 34.8575C10.7805 34.4668 10.2816 33.3925 10.5906 32.4051L10.6431 32.2577L12.6431 27.2578C13.0533 26.2322 14.2173 25.7334 15.2428 26.1436Z" fill="url(#paint0_linear_1687_8234)"/>
<path fill-rule="evenodd" clip-rule="evenodd" d="M24 23C25.1046 23 26 23.8954 26 25V39C26 42.3137 23.3137 45 20 45C18.8954 45 18 44.1046 18 43C18 41.8954 18.8954 41 20 41C21.1046 41 22 40.1046 22 39V25C22 23.8954 22.8954 23 24 23Z" fill="url(#paint1_linear_1687_8234)"/>
<path fill-rule="evenodd" clip-rule="evenodd" d="M24 3C36.1503 3 46 12.8497 46 25C46 26.1046 45.1046 27 44 27H4C2.89543 27 2 26.1046 2 25C2 12.8497 11.8497 3 24 3Z" fill="url(#paint2_linear_1687_8234)"/>
<path fill-rule="evenodd" clip-rule="evenodd" d="M24 27C19.5556 27 12.8889 27 4 27C2.89543 27 2 26.1046 2 25C2 12.8497 11.8497 3 24 3V27Z" fill="url(#paint3_linear_1687_8234)"/>
<path fill-rule="evenodd" clip-rule="evenodd" d="M32 27C32 13.7452 28.4183 3 24 3C19.5817 3 16 13.7452 16 27H32Z" fill="url(#paint4_linear_1687_8234)"/>
<defs>
<linearGradient id="paint0_linear_1687_8234" x1="3.99951" y1="26" x2="3.99951" y2="44.0011" gradientUnits="userSpaceOnUse">
<stop stop-color="#D6F0FF"/>
<stop offset="1" stop-color="#A2D5FF"/>
</linearGradient>
<linearGradient id="paint1_linear_1687_8234" x1="22" y1="23" x2="22" y2="45" gradientUnits="userSpaceOnUse">
<stop stop-color="#BBC4DC"/>
<stop offset="1" stop-color="#8592B6"/>
</linearGradient>
<linearGradient id="paint2_linear_1687_8234" x1="24" y1="3" x2="24" y2="27" gradientUnits="userSpaceOnUse">
<stop stop-color="#FFAA85"/>
<stop offset="1" stop-color="#FF6161"/>
</linearGradient>
<linearGradient id="paint3_linear_1687_8234" x1="13" y1="3" x2="13" y2="27" gradientUnits="userSpaceOnUse">
<stop stop-color="#7AC7FF"/>
<stop offset="1" stop-color="#2E69FF"/>
</linearGradient>
<linearGradient id="paint4_linear_1687_8234" x1="24" y1="3" x2="24" y2="27" gradientUnits="userSpaceOnUse">
<stop stop-color="#FFFB95"/>
<stop offset="1" stop-color="#FFB812"/>
</linearGradient>
</defs>
</svg>
