<svg width="48" height="48" viewBox="0 0 48 48" fill="none" xmlns="http://www.w3.org/2000/svg">
<g filter="url(#filter0_i_1687_8196)">
<path fill-rule="evenodd" clip-rule="evenodd" d="M33 8.99933C37.9706 8.99933 42 13.0288 42 17.9993C42 22.9699 37.9706 26.9993 33 26.9993C28.0294 26.9993 24 22.9699 24 17.9993C24 13.0288 28.0294 8.99933 33 8.99933ZM44.8177 18.0831C45.9223 18.0831 46.8177 18.9785 46.8177 20.0831C46.8177 21.1877 45.9223 22.0831 44.8177 22.0831C43.7131 22.0831 42.8177 21.1877 42.8177 20.0831C42.8177 18.9785 43.7131 18.0831 44.8177 18.0831ZM42.8298 9.11642C43.9344 9.11642 44.8298 10.0118 44.8298 11.1164C44.8298 12.221 43.9344 13.1164 42.8298 13.1164C41.7253 13.1164 40.8298 12.221 40.8298 11.1164C40.8298 10.0118 41.7253 9.11642 42.8298 9.11642ZM26.1171 6.16951C27.2217 6.16951 28.1171 7.06494 28.1171 8.16951C28.1171 9.27408 27.2217 10.1695 26.1171 10.1695C25.0125 10.1695 24.1171 9.27408 24.1171 8.16951C24.1171 7.06494 25.0125 6.16951 26.1171 6.16951ZM35.0838 4.18164C36.1883 4.18164 37.0838 5.07707 37.0838 6.18164C37.0838 7.28621 36.1883 8.18164 35.0838 8.18164C33.9792 8.18164 33.0838 7.28621 33.0838 6.18164C33.0838 5.07707 33.9792 4.18164 35.0838 4.18164Z" fill="url(#paint0_linear_1687_8196)"/>
</g>
<g filter="url(#filter1_i_1687_8196)">
<path fill-rule="evenodd" clip-rule="evenodd" d="M18 11C24.4857 11 30.1894 14.8902 32.6787 20.6214L32.8113 20.9358L32.915 21.198L33.2899 21.1325C33.5707 21.0886 33.8539 21.0554 34.1391 21.0333L34.5683 21.0083L35 21C41.0751 21 46 25.9249 46 32C46 37.8569 41.4161 42.6634 35.5868 42.9837L35.2943 42.996L35 43H17C16.8993 43 16.8004 42.9926 16.7037 42.9782L16.5604 42.9515L16.468 42.927L16.2043 42.9002C8.39416 42.0282 2.33983 35.5591 2.01382 27.6702L2.00337 27.3313L2 27C2 18.1634 9.16344 11 18 11Z" fill="url(#paint1_linear_1687_8196)"/>
</g>
<defs>
<filter id="filter0_i_1687_8196" x="24" y="4.18164" width="22.8177" height="24.8184" filterUnits="userSpaceOnUse" color-interpolation-filters="sRGB">
<feFlood flood-opacity="0" result="BackgroundImageFix"/>
<feBlend mode="normal" in="SourceGraphic" in2="BackgroundImageFix" result="shape"/>
<feColorMatrix in="SourceAlpha" type="matrix" values="0 0 0 0 0 0 0 0 0 0 0 0 0 0 0 0 0 0 127 0" result="hardAlpha"/>
<feOffset dy="2"/>
<feGaussianBlur stdDeviation="4"/>
<feComposite in2="hardAlpha" operator="arithmetic" k2="-1" k3="1"/>
<feColorMatrix type="matrix" values="0 0 0 0 1 0 0 0 0 1 0 0 0 0 1 0 0 0 1 0"/>
<feBlend mode="overlay" in2="shape" result="effect1_innerShadow_1687_8196"/>
</filter>
<filter id="filter1_i_1687_8196" x="2" y="11" width="44" height="34" filterUnits="userSpaceOnUse" color-interpolation-filters="sRGB">
<feFlood flood-opacity="0" result="BackgroundImageFix"/>
<feBlend mode="normal" in="SourceGraphic" in2="BackgroundImageFix" result="shape"/>
<feColorMatrix in="SourceAlpha" type="matrix" values="0 0 0 0 0 0 0 0 0 0 0 0 0 0 0 0 0 0 127 0" result="hardAlpha"/>
<feOffset dy="2"/>
<feGaussianBlur stdDeviation="4"/>
<feComposite in2="hardAlpha" operator="arithmetic" k2="-1" k3="1"/>
<feColorMatrix type="matrix" values="0 0 0 0 0.831313 0 0 0 0 0.98288 0 0 0 0 0.98288 0 0 0 1 0"/>
<feBlend mode="normal" in2="shape" result="effect1_innerShadow_1687_8196"/>
</filter>
<linearGradient id="paint0_linear_1687_8196" x1="35.4088" y1="4.18164" x2="35.4088" y2="26.9993" gradientUnits="userSpaceOnUse">
<stop stop-color="#FA6C21"/>
<stop offset="1" stop-color="#FFD358"/>
</linearGradient>
<linearGradient id="paint1_linear_1687_8196" x1="2" y1="11" x2="2" y2="43" gradientUnits="userSpaceOnUse">
<stop stop-color="#8FD5FF"/>
<stop offset="1" stop-color="#4CAFFF"/>
</linearGradient>
</defs>
</svg>
