<svg width="48" height="48" viewBox="0 0 48 48" fill="none" xmlns="http://www.w3.org/2000/svg">
<path fill-rule="evenodd" clip-rule="evenodd" d="M6.14303 32.2577C6.55326 31.2322 7.7172 30.7334 8.74276 31.1436C9.71949 31.5343 10.2185 32.6086 9.9094 33.596L9.85694 33.7433L7.85694 38.7433C7.44671 39.7689 6.28277 40.2677 5.2572 39.8575C4.28047 39.4668 3.7815 38.3925 4.09057 37.4051L4.14303 37.2577L6.14303 32.2577ZM15.143 32.2577C15.5533 31.2322 16.7172 30.7334 17.7428 31.1436C18.7195 31.5343 19.2185 32.6086 18.9094 33.596L18.8569 33.7433L16.8569 38.7433C16.4467 39.7689 15.2828 40.2677 14.2572 39.8575C13.2805 39.4668 12.7815 38.3925 13.0906 37.4051L13.143 37.2577L15.143 32.2577ZM30.143 36.2577C30.5533 35.2322 31.7172 34.7334 32.7428 35.1436C33.7195 35.5343 34.2185 36.6086 33.9094 37.596L33.8569 37.7433L31.8569 42.7433C31.4467 43.7689 30.2828 44.2677 29.2572 43.8575C28.2805 43.4668 27.7815 42.3925 28.0906 41.4051L28.143 41.2577L30.143 36.2577ZM41.7428 35.1436C42.7195 35.5343 43.2185 36.6086 42.9094 37.596L42.8569 37.7433L40.8569 42.7433C40.4467 43.7689 39.2828 44.2677 38.2572 43.8575C37.2805 43.4668 36.7815 42.3925 37.0906 41.4051L37.143 41.2577L39.143 36.2577C39.5533 35.2322 40.7172 34.7334 41.7428 35.1436ZM39.2428 26.1436C40.2195 26.5343 40.7185 27.6086 40.4094 28.596L40.3569 28.7433L38.3569 33.7433C37.9467 34.7689 36.7828 35.2677 35.7572 34.8575C34.7805 34.4668 34.2815 33.3925 34.5906 32.4051L34.643 32.2577L36.643 27.2578C37.0533 26.2322 38.2172 25.7334 39.2428 26.1436Z" fill="url(#paint0_linear_1687_8233)"/>
<path fill-rule="evenodd" clip-rule="evenodd" d="M24 23C25.1046 23 26 23.8954 26 25V39C26 42.3137 23.3137 45 20 45C18.8954 45 18 44.1046 18 43C18 41.8954 18.8954 41 20 41C21.1046 41 22 40.1046 22 39V25C22 23.8954 22.8954 23 24 23Z" fill="url(#paint1_linear_1687_8233)"/>
<path fill-rule="evenodd" clip-rule="evenodd" d="M24 3C36.1503 3 46 12.8497 46 25C46 26.1046 45.1046 27 44 27H4C2.89543 27 2 26.1046 2 25C2 12.8497 11.8497 3 24 3Z" fill="url(#paint2_linear_1687_8233)"/>
<path fill-rule="evenodd" clip-rule="evenodd" d="M24 27C19.5556 27 12.8889 27 4 27C2.89543 27 2 26.1046 2 25C2 12.8497 11.8497 3 24 3V27Z" fill="url(#paint3_linear_1687_8233)"/>
<path fill-rule="evenodd" clip-rule="evenodd" d="M32 27C32 13.7452 28.4183 3 24 3C19.5817 3 16 13.7452 16 27H32Z" fill="url(#paint4_linear_1687_8233)"/>
<defs>
<linearGradient id="paint0_linear_1687_8233" x1="3.99945" y1="26" x2="3.99945" y2="44.0011" gradientUnits="userSpaceOnUse">
<stop stop-color="#D6F0FF"/>
<stop offset="1" stop-color="#A2D5FF"/>
</linearGradient>
<linearGradient id="paint1_linear_1687_8233" x1="22" y1="23" x2="22" y2="45" gradientUnits="userSpaceOnUse">
<stop stop-color="#BBC4DC"/>
<stop offset="1" stop-color="#8592B6"/>
</linearGradient>
<linearGradient id="paint2_linear_1687_8233" x1="24" y1="3" x2="24" y2="27" gradientUnits="userSpaceOnUse">
<stop stop-color="#FFAA85"/>
<stop offset="1" stop-color="#FF6161"/>
</linearGradient>
<linearGradient id="paint3_linear_1687_8233" x1="13" y1="3" x2="13" y2="27" gradientUnits="userSpaceOnUse">
<stop stop-color="#7AC7FF"/>
<stop offset="1" stop-color="#2E69FF"/>
</linearGradient>
<linearGradient id="paint4_linear_1687_8233" x1="24" y1="3" x2="24" y2="27" gradientUnits="userSpaceOnUse">
<stop stop-color="#FFFB95"/>
<stop offset="1" stop-color="#FFB812"/>
</linearGradient>
</defs>
</svg>
